# xmcd
#
# Track frame offsets: 
#        150
#        6523
#        51847
#        84191
#        103026
#        131851
#        166155
#        187552
#        203402
#        227627
#
# Disc length: 3130 seconds
#
# Revision: 3
# Processed by: cddbd v1.5.2PL0 Copyright (c) Steve Scherf et al.
# Submitted via: ExactAudioCopy v0.95a4
#
DISCID=710c380a
DTITLE=Crippled Black Phoenix - (Mankind) The Crafty Ape [CD1]
DYEAR=2012
DGENRE=Progressive Rock
TTITLE0=Nothing (We Are...)
TTITLE1=The Heart of Every Country
TTITLE2=Get Down and Live with It
TTITLE3=(In the Yonder Marsh)
TTITLE4=A Letter Concerning Dogheads
TTITLE5=The Brain · Poznan
TTITLE6=Laying Traps
TTITLE7=Born in a Hurricane
TTITLE8=Release the Clowns
TTITLE9=(What?)
EXTD=
EXTT0=
EXTT1=
EXTT2=
EXTT3=
EXTT4=
EXTT5=
EXTT6=
EXTT7=
EXTT8=
EXTT9=
PLAYORDER=
